<svg id="Capa_6" data-name="Capa 6" xmlns="http://www.w3.org/2000/svg" viewBox="0 0 612.77 350.28"><defs><style>.cls-1{fill:#91a4ae;}.cls-2{fill:#f9c5ae;}.cls-3{fill:#f4a08c;}.cls-4{fill:#a05765;}</style></defs><title>6</title><g id="Capa_2" data-name="Capa 2"><rect class="cls-1" width="612.26" height="347.74"/></g><g id="Capa_3" data-name="Capa 3"><polygon class="cls-2" points="206.95 349.27 525.19 349.27 366.07 217.03 206.95 84.79 47.83 217.03 1.02 348.77 206.95 349.27"/><polyline class="cls-2" points="465.21 347.75 612.25 345.58 612.77 218.85 465.21 88.33 334.25 218.04 203.3 347.75"/></g><g id="Capa_4" data-name="Capa 4"><polyline class="cls-3" points="262.6 350.28 533.11 348.25 397.33 254.7 262.6 159.13 127.86 254.7"/><polyline class="cls-3" points="262.6 350.28 532.6 348 397.33 254.7 262.6 159.13 127.86 254.7"/><polyline class="cls-3" points="262.6 350.28 532.85 348.25 397.33 254.7 262.6 159.13 127.86 254.7 0.77 348"/><polygon class="cls-3" points="264 349.28 533.62 348 397.33 254.7 262.6 159.13 127.86 254.7 0.77 346.98 264 349.28"/></g><g id="Capa_5" data-name="Capa 5"><polyline class="cls-4" points="433.79 347.99 322.55 302.77 210.38 247.62 98.22 302.77"/><polyline class="cls-4" points="434.55 349.02 322.55 302.77 210.38 247.62 98.22 302.77"/><polyline class="cls-4" points="434.81 349.28 322.55 302.77 210.38 247.62 98.22 302.77 0.77 348.25"/></g></svg>