<?xml version="1.0" encoding="utf-8"?>
<!-- Generator: Adobe Illustrator 23.0.1, SVG Export Plug-In . SVG Version: 6.00 Build 0)  -->
<svg version="1.1" id="Capa_1" xmlns="http://www.w3.org/2000/svg" xmlns:xlink="http://www.w3.org/1999/xlink" x="0px" y="0px"
	 viewBox="0 0 3380.8 3369.2" style="enable-background:new 0 0 3380.8 3369.2;" xml:space="preserve">
<style type="text/css">
	.st0{fill:url(#SVGID_1_);}
	.st1{fill:url(#SVGID_2_);}
	.st2{fill:url(#SVGID_3_);}
	.st3{fill:#91A4AE;}
	.st4{fill:#F9C5AE;}
	.st5{fill:#F4A08C;}
	.st6{fill:#A05765;}
</style>
<title>6</title>
<linearGradient id="SVGID_1_" gradientUnits="userSpaceOnUse" x1="1654.1848" y1="938.7946" x2="2098.7061" y2="702.4391" gradientTransform="matrix(1 0 0 -1 0 3370)">
	<stop  offset="0" style="stop-color:#5E6794"/>
	<stop  offset="0" style="stop-color:#FFFFFF"/>
</linearGradient>
<polygon class="st0" points="1863,2414.6 2016.6,2327.2 1987.3,2512.4 2111.5,2643.5 1939.8,2670.5 1863,2838.9 1786.3,2670.5 
	1614.6,2643.5 1738.8,2512.4 1709.5,2327.2 "/>
<linearGradient id="SVGID_2_" gradientUnits="userSpaceOnUse" x1="1159.1691" y1="2354.8027" x2="1242.3369" y2="2310.5886" gradientTransform="matrix(1 0 0 -1 0 3370)">
	<stop  offset="0" style="stop-color:#5E6794"/>
	<stop  offset="0" style="stop-color:#FFFFFF"/>
</linearGradient>
<polygon class="st1" points="1197.6,1013.7 1227,998.2 1221.4,1030.9 1245.2,1054.1 1212.3,1058.9 1197.6,1088.7 1182.9,1058.9 
	1150,1054.1 1173.8,1030.9 1168.2,998.2 "/>
<linearGradient id="SVGID_3_" gradientUnits="userSpaceOnUse" x1="2066.4028" y1="2643.9956" x2="2561.4507" y2="2380.7715" gradientTransform="matrix(1 0 0 -1 0 3370)">
	<stop  offset="0" style="stop-color:#5E6794"/>
	<stop  offset="0" style="stop-color:#FFFFFF"/>
</linearGradient>
<polygon class="st2" points="2298.1,709.7 2470,613.6 2437.2,817.2 2576.3,961.3 2384.1,991 2298.1,1176.2 2212.1,991 2019.9,961.3 
	2159,817.2 2126.2,613.6 "/>
<g>
	<rect x="-18.9" y="-11.7" class="st3" width="3391.9" height="3370.1"/>
</g>
<g id="Capa_3">
	<polygon class="st4" points="1127.6,3373.3 2890.6,3373.3 2009.1,2091.7 1127.6,810.1 246,2091.7 -13.3,3368.4 	"/>
	<polyline class="st4" points="2558.3,3358.5 3372.9,3337.5 3375.8,2109.3 2558.3,844.4 1832.8,2101.4 1107.3,3358.5 	"/>
</g>
<g id="Capa_4">
	<polyline class="st5" points="1435.9,3383 2934.5,3363.4 2182.3,2456.7 1435.9,1530.5 689.4,2456.7 	"/>
	<polyline class="st5" points="1435.9,3383 2931.6,3360.9 2182.3,2456.7 1435.9,1530.5 689.4,2456.7 	"/>
	<polyline class="st5" points="1435.9,3383 2933,3363.4 2182.3,2456.7 1435.9,1530.5 689.4,2456.7 -14.7,3360.9 	"/>
	<polygon class="st5" points="1443.6,3373.4 2937.3,3360.9 2182.3,2456.7 1435.9,1530.5 689.4,2456.7 -14.7,3351.1 	"/>
</g>
<g id="Capa_5">
	<polyline class="st6" points="2384.2,3360.8 1768,2922.6 1146.6,2388.1 525.2,2922.6 	"/>
	<polyline class="st6" points="2388.5,3370.8 1768,2922.6 1146.6,2388.1 525.2,2922.6 	"/>
	<polyline class="st6" points="2389.9,3373.4 1768,2922.6 1146.6,2388.1 525.2,2922.6 -14.7,3363.4 	"/>
</g>
</svg>
