<?xml version="1.0" encoding="utf-8"?>
<!-- Generator: Adobe Illustrator 23.0.1, SVG Export Plug-In . SVG Version: 6.00 Build 0)  -->
<svg version="1.1" id="Capa_1" xmlns="http://www.w3.org/2000/svg" xmlns:xlink="http://www.w3.org/1999/xlink" x="0px" y="0px"
	 viewBox="0 0 3370 3370" style="enable-background:new 0 0 3370 3370;" xml:space="preserve">
<style type="text/css">
	.st0{fill:#91A4AE;}
	.st1{fill:#F9C5AE;}
	.st2{fill:#F4A08D;}
	.st3{fill:#A15765;}
</style>
<g>
	<rect x="1" y="3" class="st0" width="3373.19" height="3363.43"/>
</g>
<g id="Capa_3">
	<polygon class="st1" points="1141.17,3381.23 2894.49,3381.23 2017.83,2102.17 1141.17,823.11 264.51,2102.17 6.62,3376.39 	"/>
	<polyline class="st1" points="2564.03,3366.53 3374.14,3345.54 3377,2119.77 2564.03,857.35 1842.52,2111.94 1121.06,3366.53 	"/>
</g>
<g id="Capa_4">
	<polyline class="st2" points="1442.63,3391 2927.68,3371.37 2182.27,2466.53 1442.63,1542.15 702.93,2466.53 	"/>
	<polyline class="st2" points="1442.63,3391 2924.88,3368.95 2182.27,2466.53 1442.63,1542.15 702.93,2466.53 	"/>
	<polyline class="st2" points="1442.63,3391 2926.25,3371.37 2182.27,2466.53 1442.63,1542.15 702.93,2466.53 5.23,3368.95 	"/>
	<polygon class="st2" points="1450.31,3381.33 2930.48,3368.95 2182.27,2466.53 1442.63,1542.15 702.93,2466.53 5.23,3359.08 	"/>
</g>
<g id="Capa_5">
	<polyline class="st3" points="2382.43,3376.7 1771.74,2936.75 1155.95,2400.18 540.21,2936.75 	"/>
	<polyline class="st3" points="2386.6,3386.72 1771.74,2936.75 1155.95,2400.18 540.21,2936.75 	"/>
	<polyline class="st3" points="2388.03,3389.25 1771.74,2936.75 1155.95,2400.18 540.21,2936.75 5.23,3379.23 	"/>
</g>
</svg>
